solid Mini Amp Case
facet normal -2.8065546393104017e-07 -0.9999999994075768 3.4420459037529016e-05
  outer loop
    vertex 131.0759449226024 341.110431803671 12.689802211464885
    vertex 118.17594492260238 341.11043180367136 9.464802211464823
    vertex 131.07474334149288 341.10995170706076 -1.6101976876745567
  endloop
endfacet
facet normal -2.8065546393104017e-07 -0.9999999994075768 3.4420459037529016e-05
  outer loop
    vertex 118.17594492260238 341.11043180367136 9.464802211464823
    vertex 131.0759449226024 341.110431803671 12.689802211464885
    vertex 118.17594492260238 341.110431803671 12.689802211464885
  endloop
endfacet
facet normal -2.8065546393104017e-07 -0.9999999994075768 3.4420459037529016e-05
  outer loop
    vertex 95.07474334149279 341.10995170706076 -1.6101976876745583
    vertex 97.97594492260238 341.11043180367136 9.464802211464823
    vertex 95.07594492260236 341.110431803671 12.692002139522536
  endloop
endfacet
facet normal -2.8065546393104017e-07 -0.9999999994075768 3.4420459037529016e-05
  outer loop
    vertex 97.97594492260238 341.11043180367136 9.464802211464823
    vertex 95.07474334149279 341.10995170706076 -1.6101976876745583
    vertex 131.07474334149288 341.10995170706076 -1.6101976876745567
  endloop
endfacet
facet normal -2.8065546393104017e-07 -0.9999999994075768 3.4420459037529016e-05
  outer loop
    vertex 97.97594492260238 341.11043180367136 9.464802211464823
    vertex 131.07474334149288 341.10995170706076 -1.6101976876745567
    vertex 118.17594492260238 341.11043180367136 9.464802211464823
  endloop
endfacet
facet normal -2.8065546393104017e-07 -0.9999999994075768 3.4420459037529016e-05
  outer loop
    vertex 95.07594492260236 341.110431803671 12.692002139522536
    vertex 97.97594492260238 341.11043180367136 9.464802211464823
    vertex 97.97594492260238 341.110431803671 12.692002139522536
  endloop
endfacet
facet normal 0.9999999966229525 -4.364641399695531e-09 -8.218330317959643e-05
  outer loop
    vertex 132.5746464600151 342.6098646461908 -3.110209613052564
    vertex 132.57594492248708 334.7104318038266 12.689799580437736
    vertex 132.57464642629841 334.70986464637417 -3.110200317067042
  endloop
endfacet
facet normal 0.9999999966229525 -4.364641399695531e-09 -8.218330317959643e-05
  outer loop
    vertex 132.57594492248708 334.7104318038266 12.689799580437736
    vertex 132.5746464600151 342.6098646461908 -3.110209613052564
    vertex 132.57594495620378 342.6104318036423 12.689790284452146
  endloop
endfacet
facet normal 4.1598798520718755e-07 1.275924260927587e-06 0.9999999999990996
  outer loop
    vertex 132.57594492248708 334.7104318038266 12.689799580437736
    vertex 131.0759449226024 341.110431803671 12.689802211464885
    vertex 131.0759449226024 334.7104318038329 12.689807896960756
  endloop
endfacet
facet normal 4.1598798520718755e-07 1.275924260927587e-06 0.9999999999990996
  outer loop
    vertex 131.0759449226024 341.110431803671 12.689802211464885
    vertex 118.17594495631909 342.61043180364857 12.689798600975168
    vertex 118.17594492260238 341.110431803671 12.689802211464885
  endloop
endfacet
facet normal 4.1598798520718755e-07 1.275924260927587e-06 0.9999999999990996
  outer loop
    vertex 118.17594495631909 342.61043180364857 12.689798600975168
    vertex 131.0759449226024 341.110431803671 12.689802211464885
    vertex 132.57594495620378 342.6104318036423 12.689790284452146
  endloop
endfacet
facet normal 4.1598798520718755e-07 1.275924260927587e-06 0.9999999999990996
  outer loop
    vertex 132.57594495620378 342.6104318036423 12.689790284452146
    vertex 131.0759449226024 341.110431803671 12.689802211464885
    vertex 132.57594492248708 334.7104318038266 12.689799580437736
  endloop
endfacet
facet normal 1.0855148718999158e-23 3.244707352626245e-06 0.999999999994736
  outer loop
    vertex 108.57594492850598 278.61043180386247 9.564812764021552
    vertex 118.57594492260239 280.1104318038326 9.564807896960524
    vertex 108.5759449226024 280.1104318038326 9.564807896960524
  endloop
endfacet
facet normal 1.0855148718999158e-23 3.244707352626245e-06 0.999999999994736
  outer loop
    vertex 118.57594492260239 280.1104318038326 9.564807896960524
    vertex 108.57594492850598 278.61043180386247 9.564812764021552
    vertex 118.57594492850595 278.61043180386247 9.564812764021552
  endloop
endfacet
facet normal 4.080529273403129e-25 2.4069930065002634e-06 0.9999999999971032
  outer loop
    vertex 118.17594492260238 341.11043180367136 9.464802211464823
    vertex 97.97594495631907 342.61043180364976 9.464798600975314
    vertex 97.97594492260238 341.11043180367136 9.464802211464823
  endloop
endfacet
facet normal 4.080529273403129e-25 2.4069930065002634e-06 0.9999999999971032
  outer loop
    vertex 97.97594495631907 342.61043180364976 9.464798600975314
    vertex 118.17594492260238 341.11043180367136 9.464802211464823
    vertex 118.17594495631909 342.61043180364976 9.464798600975314
  endloop
endfacet
facet normal -3.8410247328466645e-08 0.9999999994042474 -3.45181683412733e-05
  outer loop
    vertex 95.07594492260236 280.110431803833 12.689807896960431
    vertex 108.5759449226024 280.1104318038326 9.564807896960524
    vertex 95.07474334149279 280.1099517072223 -1.5999990021787311
  endloop
endfacet
facet normal -3.8410247328466645e-08 0.9999999994042474 -3.45181683412733e-05
  outer loop
    vertex 108.5759449226024 280.1104318038326 9.564807896960524
    vertex 95.07594492260236 280.110431803833 12.689807896960431
    vertex 108.5759449226024 280.110431803833 12.689807896960433
  endloop
endfacet
facet normal -3.8410247328466645e-08 0.9999999994042474 -3.45181683412733e-05
  outer loop
    vertex 95.07474334149279 280.1099517072223 -1.5999990021787311
    vertex 131.0759449226024 280.110431803833 12.689807896960433
    vertex 131.07474334149288 280.1099517072223 -1.6101920021787404
  endloop
endfacet
facet normal -3.8410247328466645e-08 0.9999999994042474 -3.45181683412733e-05
  outer loop
    vertex 131.0759449226024 280.110431803833 12.689807896960433
    vertex 95.07474334149279 280.1099517072223 -1.5999990021787311
    vertex 118.57594492260239 280.1104318038326 9.564807896960524
  endloop
endfacet
facet normal -3.8410247328466645e-08 0.9999999994042474 -3.45181683412733e-05
  outer loop
    vertex 118.57594492260239 280.1104318038326 9.564807896960524
    vertex 95.07474334149279 280.1099517072223 -1.5999990021787311
    vertex 108.5759449226024 280.1104318038326 9.564807896960524
  endloop
endfacet
facet normal -3.8410247328466645e-08 0.9999999994042474 -3.45181683412733e-05
  outer loop
    vertex 131.0759449226024 280.110431803833 12.689807896960433
    vertex 118.57594492260239 280.1104318038326 9.564807896960524
    vertex 118.57594492260239 280.110431803833 12.689807896960433
  endloop
endfacet
facet normal -0.00011283986934330487 -1.5829796520202524e-05 0.9999999935082908
  outer loop
    vertex 95.07594492260236 288.8354318038332 12.689807896960446
    vertex 93.57594495640377 342.61043156161173 12.689805728007878
    vertex 93.57594492268707 288.8354315617964 12.689815023993155
  endloop
endfacet
facet normal -0.00011283986934330487 -1.5829796520202524e-05 0.9999999935082908
  outer loop
    vertex 93.57594495640377 342.61043156161173 12.689805728007878
    vertex 95.07594492260236 288.8354318038332 12.689807896960446
    vertex 95.07594492260236 341.110431803671 12.692002139522536
  endloop
endfacet
facet normal -0.00011283986934330487 -1.5829796520202524e-05 0.9999999935082908
  outer loop
    vertex 93.57594495640377 342.61043156161173 12.689805728007878
    vertex 95.07594492260236 341.110431803671 12.692002139522536
    vertex 97.97594495631907 342.61043180364857 12.689798600975168
  endloop
endfacet
facet normal -0.00011283986934330487 -1.5829796520202524e-05 0.9999999935082908
  outer loop
    vertex 97.97594495631907 342.61043180364857 12.689798600975168
    vertex 95.07594492260236 341.110431803671 12.692002139522536
    vertex 97.97594492260238 341.110431803671 12.692002139522536
  endloop
endfacet
facet normal -0.999999996469761 7.464581101741585e-11 8.402665130894888e-05
  outer loop
    vertex 131.0759449226024 334.7104318038329 12.689807896960756
    vertex 131.07474334149288 341.10995170706076 -1.6101976876745567
    vertex 131.07474334149288 334.7099517072221 -1.6101920021784162
  endloop
endfacet
facet normal -0.999999996469761 7.464581101741585e-11 8.402665130894888e-05
  outer loop
    vertex 131.07474334149288 341.10995170706076 -1.6101976876745567
    vertex 131.0759449226024 334.7104318038329 12.689807896960756
    vertex 131.0759449226024 341.110431803671 12.689802211464885
  endloop
endfacet
facet normal -1.0 -3.935710661155334e-09 2.2729066434212036e-22
  outer loop
    vertex 118.57594492260239 280.110431803833 12.689807896960433
    vertex 118.57594492850595 278.61043180386247 9.564812764021552
    vertex 118.57594492850595 278.61043180386247 12.689812764021587
  endloop
endfacet
facet normal -1.0 -3.935710661155334e-09 2.2729066434212036e-22
  outer loop
    vertex 118.57594492850595 278.61043180386247 9.564812764021552
    vertex 118.57594492260239 280.110431803833 12.689807896960433
    vertex 118.57594492260239 280.1104318038326 9.564807896960524
  endloop
endfacet
facet normal 0.9999999964095174 2.2422792622189483e-06 -8.471090391843894e-05
  outer loop
    vertex 95.07474334149279 280.1099517072223 -1.5999990021787311
    vertex 95.07594492260236 282.9032357392093 10.232611832337161
    vertex 95.07594492260236 280.110431803833 12.689807896960431
  endloop
endfacet
facet normal 0.9999999964095174 2.2422792622189483e-06 -8.471090391843894e-05
  outer loop
    vertex 95.07594492260236 282.9032357392093 10.232611832337161
    vertex 95.07474334149279 280.1099517072223 -1.5999990021787311
    vertex 95.07594492260236 283.62293180383256 9.680369618809452
  endloop
endfacet
facet normal 0.9999999964095174 2.2422792622189483e-06 -8.471090391843894e-05
  outer loop
    vertex 95.07594492260236 283.62293180383256 9.680369618809452
    vertex 95.07474334149279 280.1099517072223 -1.5999990021787311
    vertex 95.07594492260236 284.4610356221024 9.333215650606126
  endloop
endfacet
facet normal 0.9999999964095174 2.2422792622189483e-06 -8.471090391843894e-05
  outer loop
    vertex 95.07594492260236 284.4610356221024 9.333215650606126
    vertex 95.07474334149279 280.1099517072223 -1.5999990021787311
    vertex 95.07474334149279 341.10995170706076 -1.6101976876745583
  endloop
endfacet
facet normal 0.9999999964095174 2.2422792622189483e-06 -8.471090391843894e-05
  outer loop
    vertex 95.07594492260236 280.110431803833 12.689807896960431
    vertex 95.07594492260236 282.9032357392093 10.232611832337161
    vertex 95.07594492260236 282.35099352568204 10.952307896960418
  endloop
endfacet
facet normal 0.9999999964095174 2.2422792622189483e-06 -8.471090391843894e-05
  outer loop
    vertex 95.07594492260236 280.110431803833 12.689807896960431
    vertex 95.07594492260236 282.35099352568204 10.952307896960418
    vertex 95.07594492260236 282.0038395574783 11.790411715229263
  endloop
endfacet
facet normal 0.9999999964095174 2.2422792622189483e-06 -8.471090391843894e-05
  outer loop
    vertex 95.07594492260236 280.110431803833 12.689807896960431
    vertex 95.07594492260236 282.0038395574783 11.790411715229263
    vertex 95.07594492260236 281.88543180383243 12.689807896960154
  endloop
endfacet
facet normal 0.9999999964095174 2.2422792622189483e-06 -8.471090391843894e-05
  outer loop
    vertex 95.07594492260236 284.4610356221024 9.333215650606126
    vertex 95.07474334149279 341.10995170706076 -1.6101976876745583
    vertex 95.07594492260236 285.3604318038327 9.214807896960451
  endloop
endfacet
facet normal 0.9999999964095174 2.2422792622189483e-06 -8.471090391843894e-05
  outer loop
    vertex 95.07594492260236 285.3604318038327 9.214807896960451
    vertex 95.07474334149279 341.10995170706076 -1.6101976876745583
    vertex 95.07594492260236 286.2598279855644 9.333215650606446
  endloop
endfacet
facet normal 0.9999999964095174 2.2422792622189483e-06 -8.471090391843894e-05
  outer loop
    vertex 95.07594492260236 286.2598279855644 9.333215650606446
    vertex 95.07474334149279 341.10995170706076 -1.6101976876745583
    vertex 95.07594492260236 287.0979318038326 9.680369618809697
  endloop
endfacet
facet normal 0.9999999964095174 2.2422792622189483e-06 -8.471090391843894e-05
  outer loop
    vertex 95.07594492260236 287.0979318038326 9.680369618809697
    vertex 95.07474334149279 341.10995170706076 -1.6101976876745583
    vertex 95.07594492260236 287.8176278684558 10.232611832337401
  endloop
endfacet
facet normal 0.9999999964095174 2.2422792622189483e-06 -8.471090391843894e-05
  outer loop
    vertex 95.07594492260236 287.8176278684558 10.232611832337401
    vertex 95.07474334149279 341.10995170706076 -1.6101976876745583
    vertex 95.07594492260236 288.36987008198406 10.952307896960603
  endloop
endfacet
facet normal 0.9999999964095174 2.2422792622189483e-06 -8.471090391843894e-05
  outer loop
    vertex 95.07594492260236 288.36987008198406 10.952307896960603
    vertex 95.07474334149279 341.10995170706076 -1.6101976876745583
    vertex 95.07594492260236 288.7170240501868 11.790411715229714
  endloop
endfacet
facet normal 0.9999999964095174 2.2422792622189483e-06 -8.471090391843894e-05
  outer loop
    vertex 95.07594492260236 288.7170240501868 11.790411715229714
    vertex 95.07474334149279 341.10995170706076 -1.6101976876745583
    vertex 95.07594492260236 288.8354318038332 12.689807896960446
  endloop
endfacet
facet normal 0.9999999964095174 2.2422792622189483e-06 -8.471090391843894e-05
  outer loop
    vertex 95.07594492260236 288.8354318038332 12.689807896960446
    vertex 95.07474334149279 341.10995170706076 -1.6101976876745583
    vertex 95.07594492260236 341.110431803671 12.692002139522536
  endloop
endfacet
facet normal 0.0001419060866144987 5.762752838503742e-05 0.9999999882708653
  outer loop
    vertex 95.07474334149279 280.1099517072223 -1.5999990021787311
    vertex 119.62474357169137 286.5099517080786 -1.6085916043919657
    vertex 95.07474334149279 341.10995170706076 -1.6101976876745583
  endloop
endfacet
facet normal 0.0001419060866144987 5.762752838503742e-05 0.9999999882708653
  outer loop
    vertex 119.62474357169137 286.5099517080786 -1.6085916043919657
    vertex 95.07474334149279 280.1099517072223 -1.5999990021787311
    vertex 131.07474334149288 280.1099517072223 -1.6101920021787404
  endloop
endfacet
facet normal 0.0001419060866144987 5.762752838503742e-05 0.9999999882708653
  outer loop
    vertex 95.07474334149279 341.10995170706076 -1.6101976876745583
    vertex 119.62474357169137 286.5099517080786 -1.6085916043919657
    vertex 119.624743348916 334.7099517080783 -1.610130247556143
  endloop
endfacet
facet normal 0.0001419060866144987 5.762752838503742e-05 0.9999999882708653
  outer loop
    vertex 119.62474357169137 286.5099517080786 -1.6085916043919657
    vertex 131.07474334149288 280.1099517072223 -1.6101920021787404
    vertex 131.07474334149288 286.50995170722325 -1.6101920021789828
  endloop
endfacet
facet normal 0.0001419060866144987 5.762752838503742e-05 0.9999999882708653
  outer loop
    vertex 119.624743348916 334.7099517080783 -1.610130247556143
    vertex 131.07474334149288 341.10995170706076 -1.6101976876745567
    vertex 95.07474334149279 341.10995170706076 -1.6101976876745583
  endloop
endfacet
facet normal 0.0001419060866144987 5.762752838503742e-05 0.9999999882708653
  outer loop
    vertex 131.07474334149288 341.10995170706076 -1.6101976876745567
    vertex 119.624743348916 334.7099517080783 -1.610130247556143
    vertex 131.07474334149288 334.7099517072221 -1.6101920021784162
  endloop
endfacet
facet normal -6.23700485606722e-07 -0.9999999993853139 3.505685756909506e-05
  outer loop
    vertex 132.57464642629841 334.70986464637417 -3.110200317067042
    vertex 131.07474334149288 334.7099517072221 -1.6101920021784162
    vertex 119.62463644219743 334.70987300765626 -3.1066015287060265
  endloop
endfacet
facet normal -6.23700485606722e-07 -0.9999999993853139 3.505685756909506e-05
  outer loop
    vertex 131.07474334149288 334.7099517072221 -1.6101920021784162
    vertex 132.57464642629841 334.70986464637417 -3.110200317067042
    vertex 132.57594492248708 334.7104318038266 12.689799580437736
  endloop
endfacet
facet normal -6.23700485606722e-07 -0.9999999993853139 3.505685756909506e-05
  outer loop
    vertex 131.07474334149288 334.7099517072221 -1.6101920021784162
    vertex 132.57594492248708 334.7104318038266 12.689799580437736
    vertex 131.0759449226024 334.7104318038329 12.689807896960756
  endloop
endfacet
facet normal -6.23700485606722e-07 -0.9999999993853139 3.505685756909506e-05
  outer loop
    vertex 119.624743348916 334.7099517080783 -1.610130247556143
    vertex 119.62463644219743 334.70987300765626 -3.1066015287060265
    vertex 131.07474334149288 334.7099517072221 -1.6101920021784162
  endloop
endfacet
facet normal 4.032777797242058e-07 2.237976027063946e-06 0.9999999999974145
  outer loop
    vertex 108.57594492850598 278.61043180386264 12.689812764021491
    vertex 95.07594492260236 280.110431803833 12.689807896960431
    vertex 93.57594492859064 278.6104315618258 12.689819891054201
  endloop
endfacet
facet normal 4.032777797242058e-07 2.237976027063946e-06 0.9999999999974145
  outer loop
    vertex 95.07594492260236 280.110431803833 12.689807896960431
    vertex 108.57594492850598 278.61043180386264 12.689812764021491
    vertex 108.5759449226024 280.110431803833 12.689807896960433
  endloop
endfacet
facet normal 4.032777797242058e-07 2.237976027063946e-06 0.9999999999974145
  outer loop
    vertex 93.57594492859064 278.6104315618258 12.689819891054201
    vertex 95.07594492260236 281.88543180383243 12.689807896960154
    vertex 93.57594492268707 281.8854315617956 12.689815023992866
  endloop
endfacet
facet normal 4.032777797242058e-07 2.237976027063946e-06 0.9999999999974145
  outer loop
    vertex 95.07594492260236 281.88543180383243 12.689807896960154
    vertex 93.57594492859064 278.6104315618258 12.689819891054201
    vertex 95.07594492260236 280.110431803833 12.689807896960431
  endloop
endfacet
facet normal 3.574687680238853e-07 3.111473450178406e-07 0.9999999999998879
  outer loop
    vertex 118.57594492850595 278.61043180386247 12.689812764021587
    vertex 131.0759449226024 280.110431803833 12.689807896960433
    vertex 118.57594492260239 280.110431803833 12.689807896960433
  endloop
endfacet
facet normal 3.574687680238853e-07 3.111473450178406e-07 0.9999999999998879
  outer loop
    vertex 131.0759449226024 280.110431803833 12.689807896960433
    vertex 118.57594492850595 278.61043180386247 12.689812764021587
    vertex 132.57594492839064 278.61043180386247 12.689804447498565
  endloop
endfacet
facet normal 3.574687680238853e-07 3.111473450178406e-07 0.9999999999998879
  outer loop
    vertex 131.0759449226024 280.110431803833 12.689807896960433
    vertex 132.57594492839064 278.61043180386247 12.689804447498565
    vertex 131.0759449226024 286.51043180383306 12.689807896960769
  endloop
endfacet
facet normal 3.574687680238853e-07 3.111473450178406e-07 0.9999999999998879
  outer loop
    vertex 131.0759449226024 286.51043180383306 12.689807896960769
    vertex 132.57594492839064 278.61043180386247 12.689804447498565
    vertex 132.57594492248708 286.51043180383306 12.68979958043775
  endloop
endfacet
facet normal -0.9999999964984807 -1.990624840025791e-06 8.366048051887906e-05
  outer loop
    vertex 93.57464643240195 278.60986440437307 -3.0999870064499304
    vertex 93.57594492268707 284.46103538006554 9.333222777638836
    vertex 93.57464646021509 342.6098644041603 -3.1101941694966966
  endloop
endfacet
facet normal -0.9999999964984807 -1.990624840025791e-06 8.366048051887906e-05
  outer loop
    vertex 93.57594492268707 284.46103538006554 9.333222777638836
    vertex 93.57464643240195 278.60986440437307 -3.0999870064499304
    vertex 93.57594492268707 283.6229315617957 9.680376745842162
  endloop
endfacet
facet normal -0.9999999964984807 -1.990624840025791e-06 8.366048051887906e-05
  outer loop
    vertex 93.57594492268707 283.6229315617957 9.680376745842162
    vertex 93.57464643240195 278.60986440437307 -3.0999870064499304
    vertex 93.57594492859064 278.6104315618258 12.689819891054201
  endloop
endfacet
facet normal -0.9999999964984807 -1.990624840025791e-06 8.366048051887906e-05
  outer loop
    vertex 93.57594492268707 283.6229315617957 9.680376745842162
    vertex 93.57594492859064 278.6104315618258 12.689819891054201
    vertex 93.57594492268707 282.9032354971725 10.232618959369873
  endloop
endfacet
facet normal -0.9999999964984807 -1.990624840025791e-06 8.366048051887906e-05
  outer loop
    vertex 93.57594492268707 282.9032354971725 10.232618959369873
    vertex 93.57594492859064 278.6104315618258 12.689819891054201
    vertex 93.57594492268707 282.3509932836452 10.952315023993128
  endloop
endfacet
facet normal -0.9999999964984807 -1.990624840025791e-06 8.366048051887906e-05
  outer loop
    vertex 93.57594492268707 282.3509932836452 10.952315023993128
    vertex 93.57594492859064 278.6104315618258 12.689819891054201
    vertex 93.57594492268707 282.00383931544144 11.790418842261975
  endloop
endfacet
facet normal -0.9999999964984807 -1.990624840025791e-06 8.366048051887906e-05
  outer loop
    vertex 93.57594492268707 282.00383931544144 11.790418842261975
    vertex 93.57594492859064 278.6104315618258 12.689819891054201
    vertex 93.57594492268707 281.8854315617956 12.689815023992866
  endloop
endfacet
facet normal -0.9999999964984807 -1.990624840025791e-06 8.366048051887906e-05
  outer loop
    vertex 93.57464646021509 342.6098644041603 -3.1101941694966966
    vertex 93.57594492268707 284.46103538006554 9.333222777638836
    vertex 93.57594492268707 285.36043156179585 9.214815023993163
  endloop
endfacet
facet normal -0.9999999964984807 -1.990624840025791e-06 8.366048051887906e-05
  outer loop
    vertex 93.57464646021509 342.6098644041603 -3.1101941694966966
    vertex 93.57594492268707 285.36043156179585 9.214815023993163
    vertex 93.57594492268707 286.2598277435276 9.333222777639156
  endloop
endfacet
facet normal -0.9999999964984807 -1.990624840025791e-06 8.366048051887906e-05
  outer loop
    vertex 93.57464646021509 342.6098644041603 -3.1101941694966966
    vertex 93.57594492268707 286.2598277435276 9.333222777639156
    vertex 93.57594492268707 287.09793156179575 9.680376745842407
  endloop
endfacet
facet normal -0.9999999964984807 -1.990624840025791e-06 8.366048051887906e-05
  outer loop
    vertex 93.57464646021509 342.6098644041603 -3.1101941694966966
    vertex 93.57594492268707 287.09793156179575 9.680376745842407
    vertex 93.57594492268707 287.817627626419 10.232618959370111
  endloop
endfacet
facet normal -0.9999999964984807 -1.990624840025791e-06 8.366048051887906e-05
  outer loop
    vertex 93.57464646021509 342.6098644041603 -3.1101941694966966
    vertex 93.57594492268707 287.817627626419 10.232618959370111
    vertex 93.57594492268707 288.3698698399472 10.952315023993314
  endloop
endfacet
facet normal -0.9999999964984807 -1.990624840025791e-06 8.366048051887906e-05
  outer loop
    vertex 93.57464646021509 342.6098644041603 -3.1101941694966966
    vertex 93.57594492268707 288.3698698399472 10.952315023993314
    vertex 93.57594492268707 288.71702380815 11.790418842262426
  endloop
endfacet
facet normal -0.9999999964984807 -1.990624840025791e-06 8.366048051887906e-05
  outer loop
    vertex 93.57464646021509 342.6098644041603 -3.1101941694966966
    vertex 93.57594492268707 288.71702380815 11.790418842262426
    vertex 93.57594492268707 288.8354315617964 12.689815023993155
  endloop
endfacet
facet normal -0.9999999964984807 -1.990624840025791e-06 8.366048051887906e-05
  outer loop
    vertex 93.57464646021509 342.6098644041603 -3.1101941694966966
    vertex 93.57594492268707 288.8354315617964 12.689815023993155
    vertex 93.57594495640377 342.61043156161173 12.689805728007878
  endloop
endfacet
facet normal -0.9999999999999998 2.247779491459659e-08 5.346124643704402e-21
  outer loop
    vertex 118.17594495631909 342.61043180364857 12.689798600975168
    vertex 118.17594492260238 341.11043180367136 9.464802211464823
    vertex 118.17594492260238 341.110431803671 12.689802211464885
  endloop
endfacet
facet normal -0.9999999999999998 2.247779491459659e-08 5.346124643704402e-21
  outer loop
    vertex 118.17594492260238 341.11043180367136 9.464802211464823
    vertex 118.17594495631909 342.61043180364857 12.689798600975168
    vertex 118.17594495631909 342.61043180364976 9.464798600975314
  endloop
endfacet
facet normal 1.0 3.935710661155512e-09 -3.1253997666189697e-22
  outer loop
    vertex 108.5759449226024 280.1104318038326 9.564807896960524
    vertex 108.57594492850598 278.61043180386264 12.689812764021491
    vertex 108.57594492850598 278.61043180386247 9.564812764021552
  endloop
endfacet
facet normal 1.0 3.935710661155512e-09 -3.1253997666189697e-22
  outer loop
    vertex 108.57594492850598 278.61043180386264 12.689812764021491
    vertex 108.5759449226024 280.1104318038326 9.564807896960524
    vertex 108.5759449226024 280.110431803833 12.689807896960433
  endloop
endfacet
facet normal 0.9999999974482201 2.341409170703734e-09 -7.143920489743319e-05
  outer loop
    vertex 119.62463644219743 334.70987300765626 -3.1066015287060265
    vertex 119.62474357169137 286.5099517080786 -1.6085916043919657
    vertex 119.6246366649728 286.5098730076567 -3.105062885541883
  endloop
endfacet
facet normal 0.9999999974482201 2.341409170703734e-09 -7.143920489743319e-05
  outer loop
    vertex 119.62474357169137 286.5099517080786 -1.6085916043919657
    vertex 119.62463644219743 334.70987300765626 -3.1066015287060265
    vertex 119.624743348916 334.7099517080783 -1.610130247556143
  endloop
endfacet
facet normal 0.9999999999999998 -2.2477794914596598e-08 -5.3425645608251595e-21
  outer loop
    vertex 97.97594492260238 341.11043180367136 9.464802211464823
    vertex 97.97594495631907 342.61043180364857 12.689798600975168
    vertex 97.97594492260238 341.110431803671 12.692002139522536
  endloop
endfacet
facet normal 0.9999999999999998 -2.2477794914596598e-08 -5.3425645608251595e-21
  outer loop
    vertex 97.97594495631907 342.61043180364857 12.689798600975168
    vertex 97.97594492260238 341.11043180367136 9.464802211464823
    vertex 97.97594495631907 342.61043180364976 9.464798600975314
  endloop
endfacet
facet normal -0.000130948281045309 -5.6730033179021183e-05 -0.9999999898171256
  outer loop
    vertex 132.5746464600151 342.6098646461908 -3.110209613052564
    vertex 119.62463644219743 334.70987300765626 -3.1066015287060265
    vertex 93.57464646021509 342.6098644041603 -3.1101941694966966
  endloop
endfacet
facet normal -0.000130948281045309 -5.6730033179021183e-05 -0.9999999898171256
  outer loop
    vertex 119.62463644219743 334.70987300765626 -3.1066015287060265
    vertex 132.5746464600151 342.6098646461908 -3.110209613052564
    vertex 132.57464642629841 334.70986464637417 -3.110200317067042
  endloop
endfacet
facet normal -0.000130948281045309 -5.6730033179021183e-05 -0.9999999898171256
  outer loop
    vertex 93.57464643240195 278.60986440437307 -3.0999870064499304
    vertex 119.6246366649728 286.5098730076567 -3.105062885541883
    vertex 132.57464643220197 278.60986464641024 -3.1101954500057833
  endloop
endfacet
facet normal -0.000130948281045309 -5.6730033179021183e-05 -0.9999999898171256
  outer loop
    vertex 119.6246366649728 286.5098730076567 -3.105062885541883
    vertex 93.57464643240195 278.60986440437307 -3.0999870064499304
    vertex 93.57464646021509 342.6098644041603 -3.1101941694966966
  endloop
endfacet
facet normal -0.000130948281045309 -5.6730033179021183e-05 -0.9999999898171256
  outer loop
    vertex 119.6246366649728 286.5098730076567 -3.105062885541883
    vertex 93.57464646021509 342.6098644041603 -3.1101941694966966
    vertex 119.62463644219743 334.70987300765626 -3.1066015287060265
  endloop
endfacet
facet normal -0.000130948281045309 -5.6730033179021183e-05 -0.9999999898171256
  outer loop
    vertex 132.57464643220197 278.60986464641024 -3.1101954500057833
    vertex 119.6246366649728 286.5098730076567 -3.105062885541883
    vertex 132.57464642629841 286.50986464638055 -3.110200317066678
  endloop
endfacet
facet normal 1.9673401367603473e-06 -0.9238795325098876 0.38268343236341107
  outer loop
    vertex 95.07594492260236 288.7170240501868 11.790411715229714
    vertex 93.57594492268707 288.3698698399472 10.952315023993314
    vertex 95.07594492260236 288.36987008198406 10.952307896960603
  endloop
endfacet
facet normal 1.9673401367603473e-06 -0.9238795325098876 0.38268343236341107
  outer loop
    vertex 93.57594492268707 288.3698698399472 10.952315023993314
    vertex 95.07594492260236 288.7170240501868 11.790411715229714
    vertex 93.57594492268707 288.71702380815 11.790418842262426
  endloop
endfacet
facet normal 6.193490737167655e-07 0.9999999993853155 -3.505689134345309e-05
  outer loop
    vertex 119.62474357169137 286.5099517080786 -1.6085916043919657
    vertex 131.07474334149288 286.50995170722325 -1.6101920021789828
    vertex 119.6246366649728 286.5098730076567 -3.105062885541883
  endloop
endfacet
facet normal 6.193490737167655e-07 0.9999999993853155 -3.505689134345309e-05
  outer loop
    vertex 132.57464642629841 286.50986464638055 -3.110200317066678
    vertex 131.07474334149288 286.50995170722325 -1.6101920021789828
    vertex 132.57594492248708 286.51043180383306 12.68979958043775
  endloop
endfacet
facet normal 6.193490737167655e-07 0.9999999993853155 -3.505689134345309e-05
  outer loop
    vertex 131.07474334149288 286.50995170722325 -1.6101920021789828
    vertex 132.57464642629841 286.50986464638055 -3.110200317066678
    vertex 119.6246366649728 286.5098730076567 -3.105062885541883
  endloop
endfacet
facet normal 6.193490737167655e-07 0.9999999993853155 -3.505689134345309e-05
  outer loop
    vertex 132.57594492248708 286.51043180383306 12.68979958043775
    vertex 131.07474334149288 286.50995170722325 -1.6101920021789828
    vertex 131.0759449226024 286.51043180383306 12.689807896960769
  endloop
endfacet
facet normal 1.6691896502764557e-06 0.9238795325099413 0.38268343236469815
  outer loop
    vertex 93.57594492268707 282.3509932836452 10.952315023993128
    vertex 95.07594492260236 282.0038395574783 11.790411715229263
    vertex 95.07594492260236 282.35099352568204 10.952307896960418
  endloop
endfacet
facet normal 1.6691896502764557e-06 0.9238795325099413 0.38268343236469815
  outer loop
    vertex 95.07594492260236 282.0038395574783 11.790411715229263
    vertex 93.57594492268707 282.3509932836452 10.952315023993128
    vertex 93.57594492268707 282.00383931544144 11.790418842261975
  endloop
endfacet
facet normal 4.689645208758452e-06 0.13052619221895742 0.9914448613628634
  outer loop
    vertex 95.07594492260236 284.4610356221024 9.333215650606126
    vertex 93.57594492268707 285.36043156179585 9.214815023993163
    vertex 93.57594492268707 284.46103538006554 9.333222777638836
  endloop
endfacet
facet normal 4.689645208758452e-06 0.13052619221895742 0.9914448613628634
  outer loop
    vertex 93.57594492268707 285.36043156179585 9.214815023993163
    vertex 95.07594492260236 284.4610356221024 9.333215650606126
    vertex 95.07594492260236 285.3604318038327 9.214807896960451
  endloop
endfacet
facet normal 4.6019885286449874e-07 0.9914448613736494 0.13052619222046433
  outer loop
    vertex 93.57594492268707 282.00383931544144 11.790418842261975
    vertex 95.07594492260236 281.88543180383243 12.689807896960154
    vertex 95.07594492260236 282.0038395574783 11.790411715229263
  endloop
endfacet
facet normal 4.6019885286449874e-07 0.9914448613736494 0.13052619222046433
  outer loop
    vertex 95.07594492260236 281.88543180383243 12.689807896960154
    vertex 93.57594492268707 282.00383931544144 11.790418842261975
    vertex 93.57594492268707 281.8854315617956 12.689815023992866
  endloop
endfacet
facet normal 3.6712750175841133e-06 0.608761429004643 0.7933533402858698
  outer loop
    vertex 95.07594492260236 282.9032357392093 10.232611832337161
    vertex 93.57594492268707 283.6229315617957 9.680376745842162
    vertex 93.57594492268707 282.9032354971725 10.232618959369873
  endloop
endfacet
facet normal 3.6712750175841133e-06 0.608761429004643 0.7933533402858698
  outer loop
    vertex 93.57594492268707 283.6229315617957 9.680376745842162
    vertex 95.07594492260236 282.9032357392093 10.232611832337161
    vertex 95.07594492260236 283.62293180383256 9.680369618809452
  endloop
endfacet
facet normal 4.0909475695143696e-08 -0.9999999993165232 3.697231421272811e-05
  outer loop
    vertex 132.57594492839064 278.61043180386247 12.689804447498565
    vertex 93.57464643240195 278.60986440437307 -3.0999870064499304
    vertex 132.57464643220197 278.60986464641024 -3.1101954500057833
  endloop
endfacet
facet normal 4.0909475695143696e-08 -0.9999999993165232 3.697231421272811e-05
  outer loop
    vertex 93.57464643240195 278.60986440437307 -3.0999870064499304
    vertex 132.57594492839064 278.61043180386247 12.689804447498565
    vertex 118.57594492850595 278.61043180386247 9.564812764021552
  endloop
endfacet
facet normal 4.0909475695143696e-08 -0.9999999993165232 3.697231421272811e-05
  outer loop
    vertex 118.57594492850595 278.61043180386247 9.564812764021552
    vertex 132.57594492839064 278.61043180386247 12.689804447498565
    vertex 118.57594492850595 278.61043180386247 12.689812764021587
  endloop
endfacet
facet normal 4.0909475695143696e-08 -0.9999999993165232 3.697231421272811e-05
  outer loop
    vertex 93.57464643240195 278.60986440437307 -3.0999870064499304
    vertex 108.57594492850598 278.61043180386247 9.564812764021552
    vertex 93.57594492859064 278.6104315618258 12.689819891054201
  endloop
endfacet
facet normal 4.0909475695143696e-08 -0.9999999993165232 3.697231421272811e-05
  outer loop
    vertex 108.57594492850598 278.61043180386247 9.564812764021552
    vertex 93.57464643240195 278.60986440437307 -3.0999870064499304
    vertex 118.57594492850595 278.61043180386247 9.564812764021552
  endloop
endfacet
facet normal 4.0909475695143696e-08 -0.9999999993165232 3.697231421272811e-05
  outer loop
    vertex 93.57594492859064 278.6104315618258 12.689819891054201
    vertex 108.57594492850598 278.61043180386247 9.564812764021552
    vertex 108.57594492850598 278.61043180386264 12.689812764021491
  endloop
endfacet
facet normal 3.8677319254868355e-06 -0.6087614290042123 0.7933533402852666
  outer loop
    vertex 95.07594492260236 287.0979318038326 9.680369618809697
    vertex 93.57594492268707 287.817627626419 10.232618959370111
    vertex 93.57594492268707 287.09793156179575 9.680376745842407
  endloop
endfacet
facet normal 3.8677319254868355e-06 -0.6087614290042123 0.7933533402852666
  outer loop
    vertex 93.57594492268707 287.817627626419 10.232618959370111
    vertex 95.07594492260236 287.0979318038326 9.680369618809697
    vertex 95.07594492260236 287.8176278684558 10.232611832337401
  endloop
endfacet
facet normal 4.451428753466328e-06 -0.3826834323611982 0.9238795325021748
  outer loop
    vertex 95.07594492260236 286.2598279855644 9.333215650606446
    vertex 93.57594492268707 287.09793156179575 9.680376745842407
    vertex 93.57594492268707 286.2598277435276 9.333222777639156
  endloop
endfacet
facet normal 4.451428753466328e-06 -0.3826834323611982 0.9238795325021748
  outer loop
    vertex 93.57594492268707 287.09793156179575 9.680376745842407
    vertex 95.07594492260236 286.2598279855644 9.333215650606446
    vertex 95.07594492260236 287.0979318038326 9.680369618809697
  endloop
endfacet
facet normal 4.7317680682236836e-06 -0.1305261922190708 0.9914448613626482
  outer loop
    vertex 95.07594492260236 285.3604318038327 9.214807896960451
    vertex 93.57594492268707 286.2598277435276 9.333222777639156
    vertex 93.57594492268707 285.36043156179585 9.214815023993163
  endloop
endfacet
facet normal 4.7317680682236836e-06 -0.1305261922190708 0.9914448613626482
  outer loop
    vertex 93.57594492268707 286.2598277435276 9.333222777639156
    vertex 95.07594492260236 285.3604318038327 9.214807896960451
    vertex 95.07594492260236 286.2598279855644 9.333215650606446
  endloop
endfacet
facet normal 4.3279307783255225e-06 0.3826834323608416 0.9238795325029094
  outer loop
    vertex 95.07594492260236 283.62293180383256 9.680369618809452
    vertex 93.57594492268707 284.46103538006554 9.333222777638836
    vertex 93.57594492268707 283.6229315617957 9.680376745842162
  endloop
endfacet
facet normal 4.3279307783255225e-06 0.3826834323608416 0.9238795325029094
  outer loop
    vertex 93.57594492268707 284.46103538006554 9.333222777638836
    vertex 95.07594492260236 283.62293180383256 9.680369618809452
    vertex 95.07594492260236 284.4610356221024 9.333215650606126
  endloop
endfacet
facet normal 0.9999999966229525 6.966550421468665e-10 -8.218330336127876e-05
  outer loop
    vertex 132.57464642629841 286.50986464638055 -3.110200317066678
    vertex 132.57594492839064 278.61043180386247 12.689804447498565
    vertex 132.57464643220197 278.60986464641024 -3.1101954500057833
  endloop
endfacet
facet normal 0.9999999966229525 6.966550421468665e-10 -8.218330336127876e-05
  outer loop
    vertex 132.57594492839064 278.61043180386247 12.689804447498565
    vertex 132.57464642629841 286.50986464638055 -3.110200317066678
    vertex 132.57594492248708 286.51043180383306 12.68979958043775
  endloop
endfacet
facet normal 7.801537358846558e-07 -0.991444861373366 0.13052619222109693
  outer loop
    vertex 95.07594492260236 288.8354318038332 12.689807896960446
    vertex 93.57594492268707 288.71702380815 11.790418842262426
    vertex 95.07594492260236 288.7170240501868 11.790411715229714
  endloop
endfacet
facet normal 7.801537358846558e-07 -0.991444861373366 0.13052619222109693
  outer loop
    vertex 93.57594492268707 288.71702380815 11.790418842262426
    vertex 95.07594492260236 288.8354318038332 12.689807896960446
    vertex 93.57594492268707 288.8354315617964 12.689815023993155
  endloop
endfacet
facet normal 3.0204555585318055e-06 -0.793353340287278 0.6087614290063845
  outer loop
    vertex 95.07594492260236 288.36987008198406 10.952307896960603
    vertex 93.57594492268707 287.817627626419 10.232618959370111
    vertex 95.07594492260236 287.8176278684558 10.232611832337401
  endloop
endfacet
facet normal 3.0204555585318055e-06 -0.793353340287278 0.6087614290063845
  outer loop
    vertex 93.57594492268707 287.817627626419 10.232618959370111
    vertex 95.07594492260236 288.36987008198406 10.952307896960603
    vertex 93.57594492268707 288.3698698399472 10.952315023993314
  endloop
endfacet
facet normal -0.999999996469761 -6.11690398626266e-19 8.402665131145408e-05
  outer loop
    vertex 131.0759449226024 280.110431803833 12.689807896960433
    vertex 131.07474334149288 286.50995170722325 -1.6101920021789828
    vertex 131.07474334149288 280.1099517072223 -1.6101920021787404
  endloop
endfacet
facet normal -0.999999996469761 -6.11690398626266e-19 8.402665131145408e-05
  outer loop
    vertex 131.07474334149288 286.50995170722325 -1.6101920021789828
    vertex 131.0759449226024 280.110431803833 12.689807896960433
    vertex 131.0759449226024 286.51043180383306 12.689807896960769
  endloop
endfacet
facet normal 2.7644279314744837e-06 0.793353340288416 0.6087614290061182
  outer loop
    vertex 93.57594492268707 282.9032354971725 10.232618959369873
    vertex 95.07594492260236 282.35099352568204 10.952307896960418
    vertex 95.07594492260236 282.9032357392093 10.232611832337161
  endloop
endfacet
facet normal 2.7644279314744837e-06 0.793353340288416 0.6087614290061182
  outer loop
    vertex 95.07594492260236 282.35099352568204 10.952307896960418
    vertex 93.57594492268707 282.9032354971725 10.232618959369873
    vertex 93.57594492268707 282.3509932836452 10.952315023993128
  endloop
endfacet
facet normal 2.564376331611943e-07 0.9999999993192181 -3.689848572818671e-05
  outer loop
    vertex 93.57594495640377 342.61043156161173 12.689805728007878
    vertex 97.97594495631907 342.61043180364976 9.464798600975314
    vertex 93.57464646021509 342.6098644041603 -3.1101941694966966
  endloop
endfacet
facet normal 2.564376331611943e-07 0.9999999993192181 -3.689848572818671e-05
  outer loop
    vertex 97.97594495631907 342.61043180364976 9.464798600975314
    vertex 93.57594495640377 342.61043156161173 12.689805728007878
    vertex 97.97594495631907 342.61043180364857 12.689798600975168
  endloop
endfacet
facet normal 2.564376331611943e-07 0.9999999993192181 -3.689848572818671e-05
  outer loop
    vertex 93.57464646021509 342.6098644041603 -3.1101941694966966
    vertex 132.57594495620378 342.6104318036423 12.689790284452146
    vertex 132.5746464600151 342.6098646461908 -3.110209613052564
  endloop
endfacet
facet normal 2.564376331611943e-07 0.9999999993192181 -3.689848572818671e-05
  outer loop
    vertex 132.57594495620378 342.6104318036423 12.689790284452146
    vertex 93.57464646021509 342.6098644041603 -3.1101941694966966
    vertex 118.17594495631909 342.61043180364976 9.464798600975314
  endloop
endfacet
facet normal 2.564376331611943e-07 0.9999999993192181 -3.689848572818671e-05
  outer loop
    vertex 118.17594495631909 342.61043180364976 9.464798600975314
    vertex 93.57464646021509 342.6098644041603 -3.1101941694966966
    vertex 97.97594495631907 342.61043180364976 9.464798600975314
  endloop
endfacet
facet normal 2.564376331611943e-07 0.9999999993192181 -3.689848572818671e-05
  outer loop
    vertex 132.57594495620378 342.6104318036423 12.689790284452146
    vertex 118.17594495631909 342.61043180364976 9.464798600975314
    vertex 118.17594495631909 342.61043180364857 12.689798600975168
  endloop
endfacet
endsolid Mini Amp Case
